PathFileType	4	(x/y/z)	S08_PSF_T11
DataRate	CameraRate	NumFrames	NumMarkers	Units	OrigDataRate	OrigDataStartFrame	OrigNumFrames
240	240	11	51	mm	240	386	440
Frame#	Time	Sternum			R.Acromium			L.Acromium			Top.Head			R.ASIS			L.ASIS			R.PSIS			L.PSIS			R.Great.Tro			L.Great.Tro			R.Iliac.Crest			L.Iliac.Crest			V.Sacral			R.Thigh.Upper.Post			R.Thigh.Lower.Ant			R.Thigh.Lower.Post			R.Thigh.Upper.Ant			R.Knee.Lat			R.Knee.Med			R.Shank.Upper.Post			R.Shank.Lower.Ant			R.Shank.Lower.Post			R.Shank.Upper.Ant			R.Ankle.Lat			R.Ankle.Med			R.Heel.Upper			R.Heel.Med			R.Heel.Lat			R.Toe.Lat			R.Toe.Med			R.Toe.Tip			L.Thigh.Upper.Post			L.Thigh.Lower.Ant			L.Thigh.Lower.Post			L.Thigh.Upper.Ant			L.Knee.Lat			L.Knee.Med			L.Shank.Upper.Post			L.Shank.Lower.Ant			L.Shank.Lower.Post			L.Shank.Upper.Ant			L.Ankle.Lat			L.Ankle.Med			L.Heel.Upper			L.Heel.Med			L.Heel.Lat			L.Toe.Lat			L.Toe.Med			L.Toe.Tip			Cervical.Spine			Back			
		X1	Y1	Z1	X2	Y2	Z2	X3	Y3	Z3	X4	Y4	Z4	X5	Y5	Z5	X6	Y6	Z6	X7	Y7	Z7	X8	Y8	Z8	X9	Y9	Z9	X10	Y10	Z10	X11	Y11	Z11	X12	Y12	Z12	X13	Y13	Z13	X14	Y14	Z14	X15	Y15	Z15	X16	Y16	Z16	X17	Y17	Z17	X18	Y18	Z18	X19	Y19	Z19	X20	Y20	Z20	X21	Y21	Z21	X22	Y22	Z22	X23	Y23	Z23	X24	Y24	Z24	X25	Y25	Z25	X26	Y26	Z26	X27	Y27	Z27	X28	Y28	Z28	X29	Y29	Z29	X30	Y30	Z30	X31	Y31	Z31	X32	Y32	Z32	X33	Y33	Z33	X34	Y34	Z34	X35	Y35	Z35	X36	Y36	Z36	X37	Y37	Z37	X38	Y38	Z38	X39	Y39	Z39	X40	Y40	Z40	X41	Y41	Z41	X42	Y42	Z42	X43	Y43	Z43	X44	Y44	Z44	X45	Y45	Z45	X46	Y46	Z46	X47	Y47	Z47	X48	Y48	Z48	X49	Y49	Z49	X50	Y50	Z50	X51	Y51	Z51	

386	1.6042	590.26	1200.2	309.94	480.73	1440.8	485.87	467.38	1470.9	151.17	473.35	1757.5	332	573.38	993.96	415.62	562.71	995.11	181.58	368.43	1014	354.22	369.49	1021	261.2	521.14	887.02	490.24	452.81	894.45	121.93	476.7	1059.3	468.68	467.8	1077.3	159.7	352.94	977.33	305.17	565.02	690.31	475.23	668.32	623.23	436.87	599.22	608.84	452.66	639.75	711.39	460.38	671.51	525.41	428.24	638.58	517.08	304.27	669.59	330.1	435.13	747.77	292.2	412.03	694.66	257.66	426.56	722.68	365.14	422.31	755.55	98.422	388.98	778.24	127.62	309.65	727.34	53.584	335.63	748.56	34.105	308.53	739.96	31.732	370.2	NaN	NaN	NaN	916.34	105.4	304.3	965.89	148.04	351.65	388.84	708.9	141.37	447.26	599.35	164.41	381.59	618.64	161.23	456.34	685.38	139.85	361.73	512.29	184.08	373.11	511.16	308.64	228.88	372.7	188.27	252.85	265.49	209.73	195.26	308.39	205.97	281.89	334.31	192.68	142.12	137.94	227.14	168.65	138.02	309.65	81.165	123.9	276.8	85.752	89.131	308.69	80.477	94.185	244.24	244.29	37.614	209.43	267.48	41.5	323.65	331.31	43.112	274.62	408.13	1501.6	313.1	356.96	1218.4	320.07
387	1.6083	596.25	1200.1	310.48	486.17	1440.6	486.31	473.07	1470.7	151.54	478.7	1757.3	332.4	579.52	993.83	416.01	569.08	994.8	181.94	374.59	1013.9	354.35	375.79	1020.9	261.3	527.13	886.88	490.48	458.99	894.08	122.19	482.75	1059.1	468.94	474.19	1077.1	159.89	359.13	977.21	305.28	571.11	690.36	474.95	674.36	623.26	436.56	605.27	608.89	452.28	645.89	711.41	460.23	677.46	525.36	427.82	644.37	517.15	303.97	674.09	329.9	434.77	751.83	291.34	411.55	698.49	257.27	426.27	727.43	364.47	421.77	757.6	97.724	388.79	780.46	126.46	309.32	728.54	53.91	335.41	749.32	33.882	308.36	740.73	31.884	370.07	NaN	NaN	NaN	918.09	102.18	303.68	968.3	144.34	350.79	394.92	708.41	142.01	453.61	598.94	164.44	387.91	618.2	161.58	462.54	685.03	140.08	368.01	512.03	184.09	379.81	510.51	308.53	233.75	373.99	188.14	256.46	266.45	209.2	199.39	310.06	205.71	286.31	334.95	192.26	144.23	139.94	226.5	170.99	139.8	308.81	83.274	127.06	276.2	87.314	92.463	308.31	82.012	97.163	243.81	244.53	37.638	209.4	267.96	41.908	323.52	331.5	42.929	274.62	413.67	1501.4	313.46	362.87	1218	320.3
388	1.6125	602.26	1200.1	311.03	491.61	1440.5	486.76	478.74	1470.5	151.91	484.06	1757.2	332.79	585.68	993.77	416.4	575.49	994.54	182.31	380.77	1013.8	354.46	382.11	1020.8	261.41	533.14	886.81	490.72	465.22	893.74	122.46	488.83	1059.1	469.2	480.63	1076.9	160.08	365.35	977.16	305.38	577.19	690.47	474.7	680.35	623.32	436.27	611.26	609	451.95	652.01	711.47	460.07	683.36	525.34	427.46	650.01	517.23	303.74	678.55	329.76	434.48	755.83	290.52	411.12	702.27	256.93	426.05	732.14	363.85	421.28	759.56	97.073	388.65	782.58	125.34	309.04	729.63	54.287	335.24	749.96	33.725	308.24	741.4	32.084	369.98	NaN	NaN	NaN	919.72	98.977	303.08	970.61	140.62	349.98	401.12	707.92	142.63	460.11	598.55	164.46	394.37	617.74	161.92	468.86	684.71	140.3	374.48	511.77	184.07	386.7	509.85	308.39	238.83	375.32	187.97	260.24	267.44	208.62	203.7	311.79	205.42	290.9	335.62	191.81	146.51	142.02	225.81	173.5	141.65	307.93	85.581	130.39	275.56	89.038	95.974	307.89	83.703	100.31	243.35	244.8	37.689	209.36	268.48	42.335	323.37	331.69	42.751	274.61	419.21	1501.2	313.83	368.8	1217.7	320.53
389	1.6167	608.29	1200.2	311.57	497.05	1440.4	487.22	484.39	1470.4	152.29	489.44	1757.2	333.2	591.86	993.78	416.8	581.91	994.34	182.7	386.97	1013.9	354.57	388.47	1020.7	261.5	539.18	886.81	490.97	471.5	893.44	122.73	494.92	1059.1	469.47	487.09	1076.7	160.27	371.59	977.17	305.48	583.24	690.64	474.48	686.31	623.39	436.01	617.22	609.15	451.67	658.11	711.57	459.91	689.2	525.34	427.15	655.5	517.3	303.58	682.97	329.67	434.27	759.78	289.75	410.73	706.01	256.64	425.9	736.79	363.28	420.83	761.43	96.47	388.55	784.61	124.28	308.81	730.65	54.71	335.12	750.51	33.633	308.16	741.98	32.325	369.93	NaN	NaN	NaN	921.24	95.815	302.52	972.81	136.9	349.21	407.44	707.43	143.24	466.76	598.17	164.45	400.98	617.27	162.24	475.29	684.41	140.51	381.14	511.51	184.01	393.79	509.16	308.2	244.11	376.69	187.75	264.21	268.49	208	208.23	313.56	205.09	295.69	336.32	191.3	148.97	144.18	225.07	176.19	143.58	306.99	88.1	133.89	274.87	90.937	99.669	307.43	85.566	103.64	242.84	245.1	37.774	209.3	269.03	42.782	323.2	331.88	42.573	274.62	424.75	1501.1	314.2	374.74	1217.5	320.77
390	1.6208	614.32	1200.4	312.12	502.5	1440.3	487.67	490.01	1470.3	152.66	494.83	1757.2	333.61	598.06	993.86	417.19	588.35	994.19	183.1	393.19	1014	354.67	394.84	1020.8	261.59	545.24	886.88	491.22	477.82	893.17	123.02	501.04	1059.2	469.73	493.58	1076.7	160.46	377.84	977.26	305.58	589.28	690.88	474.31	692.21	623.5	435.77	623.13	609.35	451.46	664.19	711.71	459.75	694.97	525.38	426.9	660.85	517.38	303.49	687.34	329.64	434.14	763.68	289.03	410.38	709.71	256.4	425.82	741.4	362.76	420.45	763.24	95.916	388.49	786.55	123.29	308.64	731.6	55.169	335.04	750.98	33.605	308.11	742.51	32.6	369.91	NaN	NaN	NaN	922.65	92.718	302.01	974.92	133.21	348.5	413.88	706.92	143.82	473.58	597.8	164.41	407.74	616.78	162.54	481.83	684.12	140.71	388.01	511.23	183.9	401.08	508.44	307.96	249.61	378.08	187.49	268.37	269.57	207.32	212.97	315.37	204.72	300.69	337.05	190.74	151.63	146.44	224.28	179.06	145.59	306	90.848	137.55	274.13	93.022	103.55	306.91	87.615	107.16	242.28	245.44	37.9	209.24	269.63	43.252	323.02	332.07	42.393	274.63	430.27	1501	314.58	380.69	1217.3	321.02
391	1.625	620.37	1200.6	312.66	507.94	1440.4	488.12	495.62	1470.3	153.03	500.23	1757.3	334.02	604.26	994.02	417.59	594.81	994.1	183.5	399.41	1014.2	354.77	401.22	1020.9	261.67	551.31	887.03	491.48	484.19	892.94	123.31	507.16	1059.4	470	500.08	1076.6	160.66	384.11	977.41	305.67	595.3	691.19	474.19	698.08	623.64	435.57	629	609.6	451.31	670.26	711.9	459.59	700.68	525.44	426.72	666.07	517.48	303.48	691.65	329.65	434.1	767.52	288.36	410.09	713.36	256.21	425.81	745.95	362.28	420.12	764.97	95.412	388.47	788.42	122.37	308.53	732.49	55.658	335.01	751.4	33.637	308.09	742.98	32.903	369.92	NaN	NaN	NaN	923.98	89.709	301.54	976.94	129.57	347.86	420.43	706.41	144.38	480.55	597.44	164.33	414.65	616.27	162.82	488.48	683.86	140.89	395.08	510.94	183.74	408.58	507.7	307.67	255.34	379.49	187.18	272.74	270.69	206.6	217.94	317.22	204.29	305.89	337.8	190.13	154.5	148.78	223.44	182.12	147.68	304.97	93.838	141.39	273.34	95.308	107.63	306.33	89.866	110.87	241.67	245.82	38.074	209.16	270.27	43.752	322.82	332.27	42.207	274.64	435.79	1501	314.96	386.66	1217.2	321.28
392	1.6292	626.42	1201	313.19	513.38	1440.5	488.57	501.2	1470.4	153.4	505.65	1757.5	334.44	610.46	994.25	417.98	601.26	994.05	183.92	405.64	1014.4	354.86	407.6	1021	261.74	557.41	887.27	491.75	490.6	892.74	123.6	513.29	1059.7	470.27	506.59	1076.7	160.86	390.38	977.62	305.77	601.31	691.56	474.13	703.91	623.81	435.4	634.84	609.9	451.24	676.3	712.13	459.43	706.33	525.52	426.59	671.16	517.58	303.54	695.92	329.72	434.13	771.3	287.74	409.86	716.95	256.08	425.87	750.43	361.85	419.86	766.63	94.956	388.49	790.21	121.51	308.46	733.34	56.168	335.01	751.77	33.723	308.09	743.42	33.227	369.95	NaN	NaN	NaN	925.23	86.805	301.14	978.86	126.02	347.29	427.1	705.89	144.91	487.68	597.1	164.21	421.71	615.74	163.07	495.24	683.61	141.05	402.36	510.64	183.53	416.28	506.93	307.34	261.3	380.91	186.82	277.33	271.85	205.82	223.14	319.11	203.82	311.32	338.57	189.47	157.59	151.22	222.54	185.38	149.86	303.89	97.085	145.4	272.48	97.806	111.91	305.69	92.335	114.77	240.99	246.25	38.308	209.06	270.95	44.287	322.6	332.48	42.01	274.65	441.31	1501.1	315.34	392.63	1217.1	321.54
393	1.6333	632.46	1201.4	313.72	518.82	1440.6	489.02	506.77	1470.5	153.77	511.07	1757.8	334.86	616.66	994.55	418.37	607.71	994.07	184.34	411.86	1014.7	354.95	413.98	1021.2	261.81	563.53	887.59	492.02	497.03	892.57	123.9	519.42	1060	470.53	513.1	1076.8	161.07	396.64	977.9	305.86	607.3	691.99	474.13	709.71	624.02	435.27	640.65	610.25	451.24	682.32	712.41	459.29	711.91	525.64	426.53	676.15	517.7	303.67	700.12	329.83	434.25	775.01	287.17	409.68	720.49	255.99	426	754.85	361.46	419.67	768.23	94.548	388.54	791.94	120.73	308.46	734.15	56.692	335.05	752.11	33.86	308.12	743.83	33.564	370	NaN	NaN	NaN	926.4	84.022	300.79	980.69	122.55	346.81	433.88	705.35	145.41	494.96	596.76	164.05	428.93	615.18	163.28	502.11	683.38	141.19	409.85	510.32	183.26	424.19	506.13	306.95	267.51	382.35	186.39	282.14	273.03	205	228.58	321.02	203.3	316.98	339.35	188.75	160.91	153.75	221.58	188.84	152.12	302.77	100.6	149.59	271.56	100.53	116.38	304.97	95.038	118.88	240.23	246.74	38.61	208.95	271.68	44.864	322.37	332.71	41.8	274.67	446.81	1501.2	315.73	398.61	1217.1	321.8
394	1.6375	638.5	1201.8	314.23	524.26	1440.9	489.45	512.32	1470.7	154.14	516.51	1758.1	335.28	622.84	994.92	418.75	614.14	994.13	184.77	418.07	1015.1	355.04	420.35	1021.5	261.88	569.65	887.99	492.31	503.49	892.44	124.21	525.55	1060.4	470.8	519.6	1076.9	161.28	402.9	978.24	305.96	613.28	692.48	474.2	715.47	624.27	435.18	646.43	610.64	451.32	688.31	712.74	459.16	717.43	525.77	426.53	681.04	517.84	303.86	704.25	329.98	434.45	778.65	286.64	409.56	723.97	255.94	426.19	759.2	361.11	419.55	769.76	94.187	388.62	793.6	120.02	308.5	734.92	57.223	335.12	752.42	34.041	308.17	744.21	33.91	370.06	NaN	NaN	NaN	927.5	81.369	300.5	982.44	119.2	346.42	440.77	704.8	145.87	502.41	596.44	163.85	436.29	614.61	163.45	509.09	683.16	141.31	417.55	509.97	182.93	432.3	505.3	306.5	273.97	383.8	185.9	287.18	274.24	204.13	234.28	322.95	202.72	322.87	340.14	187.99	164.47	156.38	220.55	192.51	154.46	301.6	104.4	153.94	270.57	103.49	121.05	304.18	97.991	123.19	239.41	247.3	38.993	208.81	272.46	45.493	322.11	332.95	41.573	274.69	452.31	1501.4	316.11	404.59	1217.1	322.07
395	1.6417	644.53	1202.4	314.73	529.7	1441.2	489.88	517.85	1471	154.5	521.96	1758.4	335.7	629	995.36	419.13	620.55	994.25	185.2	424.27	1015.6	355.13	426.7	1021.8	261.95	575.78	888.47	492.61	509.97	892.34	124.53	531.66	1060.9	471.06	526.08	1077.1	161.49	409.15	978.63	306.06	619.25	693.03	474.33	721.21	624.56	435.13	652.19	611.08	451.48	694.28	713.12	459.05	722.89	525.93	426.58	685.86	518	304.11	708.31	330.16	434.71	782.21	286.16	409.49	727.37	255.94	426.44	763.46	360.8	419.49	771.22	93.871	388.72	795.2	119.38	308.58	735.65	57.756	335.22	752.72	34.259	308.24	744.58	34.26	370.14	NaN	NaN	NaN	928.53	78.854	300.27	984.09	115.96	346.1	447.76	704.22	146.31	510.01	596.12	163.6	443.81	614	163.57	516.18	682.96	141.41	425.48	509.6	182.54	440.63	504.44	306.01	280.69	385.24	185.35	292.46	275.48	203.21	240.23	324.9	202.08	329.01	340.93	187.18	168.27	159.11	219.47	196.4	156.9	300.41	108.5	158.47	269.5	106.71	125.92	303.3	101.21	127.71	238.5	247.94	39.468	208.64	273.3	46.184	321.83	333.22	41.325	274.7	457.8	1501.6	316.49	410.57	1217.2	322.34
396	1.6458	650.53	1203	315.2	535.14	1441.5	490.3	523.38	1471.3	154.87	527.41	1758.9	336.12	635.14	995.87	419.51	626.94	994.41	185.63	430.44	1016.1	355.22	433.03	1022.2	262.02	581.91	889.04	492.92	516.45	892.26	124.86	537.76	1061.5	471.33	532.53	1077.3	161.7	415.37	979.06	306.16	625.2	693.63	474.54	726.91	624.89	435.13	657.92	611.57	451.72	700.23	713.54	458.96	728.28	526.11	426.68	690.61	518.19	304.41	712.29	330.38	435.04	785.7	285.71	409.48	730.7	255.97	426.73	767.64	360.52	419.49	772.62	93.598	388.84	796.74	118.81	308.71	736.35	58.285	335.33	753	34.508	308.32	744.94	34.609	370.24	NaN	NaN	NaN	929.5	76.479	300.08	985.64	112.86	345.85	454.86	703.62	146.7	517.77	595.82	163.31	451.48	613.38	163.65	523.37	682.77	141.48	433.61	509.2	182.09	449.17	503.55	305.47	287.67	386.68	184.74	297.99	276.73	202.26	246.45	326.86	201.38	335.4	341.72	186.33	172.34	161.94	218.33	200.5	159.42	299.18	112.91	163.17	268.35	110.19	130.99	302.34	104.71	132.44	237.51	248.66	40.048	208.44	274.19	46.949	321.53	333.52	41.055	274.71	463.28	1501.8	316.86	416.53	1217.3	322.61
